<svg enable-background="new 0 0 789 476" viewBox="0 0 789 476" xmlns="http://www.w3.org/2000/svg" xmlns:xlink="http://www.w3.org/1999/xlink"><clipPath id="a"><path d="m0 0h789v476h-789z"/></clipPath><g clip-path="url(#a)"><path d="m689 379.8-9.3 4.5c-2.1 1-4.6.1-5.6-1.9l-4.5-9.3c-1-2.1-.1-4.6 1.9-5.6l9.3-4.5c2.1-1 4.6-.1 5.6 1.9l4.5 9.3c1 2 .2 4.6-1.9 5.6z" fill="#5aa2f4"/><path d="m75.1 428.3-19 3.3c-2.3.4-4.5-1.1-4.8-3.4l-3.3-19c-.4-2.3 1.1-4.5 3.4-4.8l19-3.3c2.3-.4 4.5 1.1 4.8 3.4l3.3 19c.4 2.2-1.1 4.4-3.4 4.8z" fill="#f64c71"/><path d="m425.6 119.4c-9.4 0-17.1-7.7-17.1-17.1s7.7-17.1 17.1-17.1 17.1 7.7 17.1 17.1-7.7 17.1-17.1 17.1zm0-25.2c-4.4 0-8.1 3.6-8.1 8.1s3.6 8.1 8.1 8.1 8.1-3.6 8.1-8.1-3.7-8.1-8.1-8.1z" fill="#8fc7ff"/><path d="m209.8 289.6c-34.8 0-53.6-16.6-71.8-32.7-18.6-16.5-36.1-32-70.3-32-1.7 0-3-1.3-3-3s1.3-3 3-3c36.4 0 55.7 17 74.3 33.5 18.1 16.1 35.3 31.2 67.8 31.2 32.9 0 52.6-35.8 71.7-70.4 18.7-34 38.1-69.1 70.4-69.1 32.5 0 52.5 33.4 71.9 65.7 19.1 31.9 38.9 64.9 70.2 64.9 33.4 0 47.3-36.5 62-75.2 16.5-43.4 33.6-88.2 80-88.2 32.7 0 46.3 24.3 60.6 50 8.7 15.7 17.8 31.9 31.7 43.5 1.3 1.1 1.4 3 .4 4.2-1.1 1.3-3 1.4-4.2.4-14.8-12.3-24.1-29-33.1-45.1-14.1-25.2-26.2-46.9-55.4-46.9-42.3 0-58.6 42.9-74.4 84.4-14.8 38.9-30.1 79.1-67.7 79.1-34.6 0-55.3-34.5-75.3-67.8-19.4-32.3-37.6-62.7-66.7-62.7-28.7 0-46.4 32-65.1 66-19.9 35.8-40.5 73.2-77 73.2z" fill="#3787dc"/><path d="m494 400.5c-35 0-55.6-50.5-75.5-99.4-18.6-45.5-37.7-92.5-66.5-92.5-29 0-46.7 23-65.4 47.3-20 26-40.6 52.9-76.7 52.9-35.5 0-54.3-38.3-72.5-75.3-8.6-17.5-17.5-35.6-27.9-49.2-1-1.3-.8-3.2.6-4.2 1.3-1 3.2-.8 4.2.6 10.8 14.1 19.9 32.5 28.6 50.3 18.2 37 35.3 71.9 67.1 71.9 33.2 0 52.9-25.7 72-50.5 18.8-24.4 38.1-49.7 70.1-49.7 32.8 0 51.9 46.7 72.1 96.2 19.2 47 39.1 95.7 70 95.7 33.1 0 47.7-67.1 61.9-131.9 16.4-75 33.4-152.6 80.2-152.6 32.9 0 46.4 30.1 60.7 61.9 16.5 36.7 33.5 74.6 81.4 74.6 1.7 0 3 1.3 3 3s-1.3 3-3 3c-51.7 0-70.4-41.5-86.8-78.1-14.1-31.3-26.3-58.4-55.3-58.4-42 0-58.4 75.2-74.3 147.8-15.6 70.3-30.1 136.6-68 136.6z" fill="#0d3894"/><path d="m561.9 112.5h-52.5c-8.6 0-15.7-7.1-15.7-15.7v-52.6c0-8.6 7.1-15.7 15.7-15.7h52.5c8.6 0 15.7 7.1 15.7 15.7v52.6c-.1 8.7-7.1 15.7-15.7 15.7z" fill="#deeaf9"/><path d="m773.3 444.4h-52.5c-8.6 0-15.7-7.1-15.7-15.7v-52.6c0-8.6 7.1-15.7 15.7-15.7h52.5c8.6 0 15.7 7.1 15.7 15.7v52.6c0 8.7-7.1 15.7-15.7 15.7z" fill="#deeaf9"/><path d="m450.4 243.8-30.5-5.7c-3.1-.6-4.7-3.5-3.5-6.4l18.5-49.4c1.1-3 4.5-4.9 7.6-4.4l30.5 5.7c3.1.6 4.7 3.5 3.5 6.4l-18.5 49.5c-1.2 2.9-4.6 4.9-7.6 4.3z" fill="#e5e5e5"/><path d="m453.7 235.6-30.9-5.8c-.9-.2-1.4-1-1-1.9l16.9-45c.3-.9 1.3-1.4 2.2-1.3l30.9 5.8c.9.2 1.4 1 1 1.9l-16.9 45c-.4.9-1.3 1.4-2.2 1.3z" fill="#6d6d6d"/><path d="m437.6 238.4c1-.6 1.4-1.9.9-2.7-.5-.9-1.8-1-2.8-.4s-1.4 1.9-.9 2.7c.5.9 1.8 1 2.8.4z" fill="#cecece"/><path d="m461.2 220-25.2-30.3 1.9-5 25.2 30.3z" fill="#fff" opacity=".2"/><path d="m430.6 231.3-7-8.4 1.9-5 12.2 14.7z" fill="#fff" opacity=".2"/><path d="m428.8 196.5c-2.5-.6-3.8-1.7-7.4 2.4-3.4 3.9-8.5 11.6-8.5 11.6l4.1 3.6s4-1.2 6.5-2.6 3.4-2 3.4-2l-1.4-4.3z" fill="#ffc5b6"/><path d="m377.1 245.1c19.5 1.6 43.1-21.3 43.4-30.8.2-6.6-6.6-9.8-9.9-6.4-3.4 3.4-20.1 15.1-28.2 14.2s-10.9 10.5-10.9 10.5z" fill="#3787dc"/><path d="m402.3 450.3s5.5 8.4-3.8 10.2c-.7 2.1-.6 2-.8 4.1-.6 6.4 0 11.4 0 11.4h36.1s-1.1-9.6-4-11.8-10.2-1.9-12.7-4.3-1.3-13.4-1.3-13.4z" fill="#0c1b28"/><path d="m417.1 459.9c-2.5-2.4-1.3-13.4-1.3-13.4l-13.6 3.8s-1 4.9-3.8 10.2c8.6 8 18.7-.6 18.7-.6z" fill="#ffc5b6"/><path d="m320.7 450.3s-8 8.4 1.3 10.2c.7 2.1.6 2 .8 4.1.6 6.4 0 11.4 0 11.4h-31.8s1.1-9.6 4-11.8 5.8-1.9 8.3-4.3 11.4-10.5 11.4-10.5z" fill="#0c1b28"/><path d="m303.3 459.9c2.5-2.4 8.5-15.1 8.5-15.1l13.7 2.4s-2.5 5.9-3.6 13.2c-8.5 8.1-18.6-.5-18.6-.5z" fill="#ffc5b6"/><path d="m450.2 247.8s3.2-3.1 5.4-3.6c2.1-.5 7.9-3.3 8.8-6.2s2.1-8 2.1-10.3-2.8-3.5-2.8-3.5-1.1 2.8-1.7 4.7c-.4 1.3-1.6 2.7-3 3.3-2.8 1.2-3.8-1.6-3.8-4 0-3.1-3.7-5.1-4.5-1.4-.7 3.4.2 7.4.5 8.9.3 1.6-5.9 5.4-5.9 5.4z" fill="#ffc5b6"/><path d="m359.5 268.3c-17.8 25.4-4.7 34.1-6.8 52.1-2.3 19-.8 15.5-5.1 31.6-4.2 16.1-8.9 12-17 26.9-8.1 14.8-21.6 67.6-21.6 67.6l15.6 3.8s33.1-69.7 42.8-84.1 34.8-72.6 34.8-72.6l-6.6-30.1z" fill="#2c4268"/><path d="m334.6 212.4s17 21.7 18 35.4c1.1 14.4-4.9 11.6 6.8 20.5 14.4 0 39.7.8 39.7.8 5.5 0-2.3-15.2-6.2-31s15.7-16 11.5-33.4-18.7-22.2-18.7-22.2z" fill="#3787dc"/><path d="m397.7 134.1v31c0 8.9-4.8 14.9-15.7 13.7s-15.1-10.9-15.1-15.1 0-29.6 0-29.6z" fill="#ffc5b6"/><path d="m399.2 269.1c2.7 7 11.3 21.7 13.6 29.3 8.6 28.6 9.4 51.6 9.7 65.7.4 17.8-5.5 88.6-5.5 88.6h-16.8s-6.8-43.6-5.4-67c1.4-23.3-24.8-76.4-24.8-76.4l7.2-40.9z" fill="#2c4268"/><path d="m387.3 185c13.5 6.2 18.6 13 19.7 30.2s13.8 30.5 8.1 39.2-13.4 10.8-18 0c-4.7-10.8-22.7-56-22.7-56z" fill="#3787dc"/><path d="m393 161c3.8 0 13.6-3.9 14.7-12.9.9-7.8-6.2-21.1-12.6-20.5-2.1-4.7-17.6-9.1-24.6-2.3-5.5-6-22.5 3.8-15.3 18.4-20.8 7.7-19.9 34.3-10.8 40.8-30.7 18-18 45-9.2 48.2 1.1 13.1 22.3 14.5 25.6 1.9 19.2 10 21.4-7.8 21.4-7.8s8.1 5.9 15.4-2.5-1.7-19.3-10.5-19.6c16.2-4.3-7.1-25.8 0-38.9s5.9-4.8 5.9-4.8z" fill="#774320"/><path d="m393 159.5c0-4.8-6-6-8.5-1.2-2.4 4.8 2.4 8.5 6 8.5 2.8 0 2.5-7.3 2.5-7.3z" fill="#ffc5b6"/><path d="m390.6 159.5c0-2.7-3.6-2.4-4.8-1.2s4.8 2.4 4.8 1.2z" fill="#dd7f72"/><path d="m402.1 261c17.9 8 47.7-5.9 51.1-14.8 2.4-6.2-3-11.4-7.3-9.3s-23.9 7.6-31.3 4.1-13.7 6.3-13.7 6.3z" fill="#3787dc"/><path d="m428.8 196.5c5.6 2.7 9.2 9.2 8.3 10.6s-1.9 1.1-1.9 1.1l-7.9-2.8-4.3.6s-.6-7.5-.6-7.6c-.1-.1 6.4-1.9 6.4-1.9z" fill="#ffc5b6"/><path d="m427.5 203.8c-5 2.6-7.3 6-2.9 6.2 2.1.1 8.6-2.8 8.1-5.3-.7-3.4-3.1-2-5.2-.9z" fill="#ffc5b6"/><path d="m91.4 128.4c-8.8 0-15.9-7.2-15.9-16s7.2-16 15.9-16 15.9 7.2 15.9 16-7.1 16-15.9 16zm0-22.9c-3.8 0-6.9 3.1-6.9 7s3.1 7 6.9 7 6.9-3.1 6.9-7-3-7-6.9-7z" fill="#f64c71"/><path d="m703.1 314c-8.8 0-15.9-7.2-15.9-16s7.2-16 15.9-16 15.9 7.2 15.9 16-7.1 16-15.9 16zm0-23c-3.8 0-6.9 3.1-6.9 7s3.1 7 6.9 7 6.9-3.1 6.9-7-3-7-6.9-7z" fill="#f64c71"/><path d="m188.7 413.5c-16.8 0-30.5-13.7-30.5-30.5s13.7-30.5 30.5-30.5 30.5 13.7 30.5 30.5-13.6 30.5-30.5 30.5zm0-52c-11.8 0-21.5 9.7-21.5 21.5s9.6 21.5 21.5 21.5 21.5-9.7 21.5-21.5-9.6-21.5-21.5-21.5z" fill="#5aa2f4"/><path d="m581.1 111c-13 0-23.6-10.6-23.6-23.7s10.6-23.7 23.6-23.7 23.6 10.6 23.6 23.7-10.6 23.7-23.6 23.7zm0-38.3c-8.1 0-14.6 6.6-14.6 14.7s6.6 14.7 14.6 14.7c8.1 0 14.6-6.6 14.6-14.7s-6.5-14.7-14.6-14.7z" fill="#8fc7ff"/><path d="m38.3 194.9-19.3-.5c-2.3-.1-4.2-2-4.1-4.3l.4-19.3c.1-2.3 2-4.2 4.3-4.1l19.3.4c2.3.1 4.2 2 4.1 4.3l-.4 19.3c-.1 2.4-2 4.2-4.3 4.2z" fill="#0d3894"/><path d="m344.8 44.5-6.8-7.7c-1.5-1.7-1.3-4.4.4-5.9l7.8-6.8c1.7-1.5 4.4-1.3 5.9.4l6.8 7.7c1.5 1.7 1.3 4.4-.4 5.9l-7.8 6.8c-1.7 1.5-4.4 1.3-5.9-.4z" fill="#5aa2f4"/><path d="m503.3 331.9-10.2-1.2c-2.3-.3-3.9-2.4-3.7-4.7l1.2-10.2c.3-2.3 2.4-3.9 4.7-3.7l10.2 1.2c2.3.3 3.9 2.4 3.7 4.7l-1.2 10.2c-.3 2.3-2.4 4-4.7 3.7z" fill="#8fc7ff"/><path d="m765.9 394h-37.7c-3.5 0-6.3-2.8-6.3-6.3s2.8-6.3 6.3-6.3h37.7c3.5 0 6.3 2.8 6.3 6.3s-2.8 6.3-6.3 6.3z" fill="#56d872" opacity=".09"/><path d="m757.5 394h-29.4c-3.5 0-6.3-2.8-6.3-6.3s2.8-6.3 6.3-6.3h29.4c3.5 0 6.3 2.8 6.3 6.3s-2.8 6.3-6.3 6.3z" fill="#56d872"/><path d="m765.9 423.4h-37.7c-3.5 0-6.3-2.8-6.3-6.3s2.8-6.3 6.3-6.3h37.7c3.5 0 6.3 2.8 6.3 6.3s-2.8 6.3-6.3 6.3z" fill="#f43d3d" opacity=".09"/><path d="m734.1 423.4h-5.9c-3.5 0-6.3-2.8-6.3-6.3s2.8-6.3 6.3-6.3h5.9c3.5 0 6.3 2.8 6.3 6.3s-2.9 6.3-6.3 6.3z" fill="#fc5e5e"/><path d="m83.9 316.6v52.6c0 8.6-7.1 15.7-15.7 15.7h-52.5c-8.6 0-15.7-7.1-15.7-15.7v-52.6c0-8.6 7.1-15.7 15.7-15.7h52.5c8.6 0 15.7 7 15.7 15.7z" fill="#deeaf9"/><g fill="#3787dc"><path d="m46.1 321.9v42c0 2.3-1.9 4.2-4.2 4.2s-4.2-1.9-4.2-4.2v-42c0-2.3 1.9-4.2 4.2-4.2 2.4 0 4.2 1.9 4.2 4.2z" opacity=".2"/><path d="m46.1 334v29.8c0 2.3-1.9 4.2-4.2 4.2s-4.2-1.9-4.2-4.2v-29.8c0-2.3 1.9-4.2 4.2-4.2 2.4 0 4.2 1.9 4.2 4.2z"/><path d="m62.9 321.9v42c0 2.3-1.9 4.2-4.2 4.2s-4.2-1.9-4.2-4.2v-42c0-2.3 1.9-4.2 4.2-4.2s4.2 1.9 4.2 4.2z" opacity=".2"/><path d="m62.9 343.1v20.7c0 2.3-1.9 4.2-4.2 4.2s-4.2-1.9-4.2-4.2v-20.7c0-2.3 1.9-4.2 4.2-4.2s4.2 1.9 4.2 4.2z"/><path d="m29.4 321.9v42c0 2.3-1.9 4.2-4.2 4.2s-4.2-1.9-4.2-4.2v-42c0-2.3 1.9-4.2 4.2-4.2s4.2 1.9 4.2 4.2z" opacity=".2"/><path d="m29.4 356.5v7.3c0 2.3-1.9 4.2-4.2 4.2s-4.2-1.9-4.2-4.2v-7.3c0-2.3 1.9-4.2 4.2-4.2s4.2 1.9 4.2 4.2z"/></g><path d="m510.1 71.2c-.9 0-1.8-.4-2.4-1.2-1-1.3-.7-3.2.6-4.2l14.5-10.9c.9-.7 2.1-.8 3.1-.3l13.3 6.4 21.4-3.6c1.6-.3 3.2.8 3.5 2.5.3 1.6-.8 3.2-2.5 3.5l-22.4 3.6c-.6.1-1.2 0-1.8-.3l-12.5-6-13 9.8c-.6.5-1.2.7-1.8.7z" fill="#0d3894"/><path d="m510.1 92.5c-.6 0-1.2-.2-1.8-.6-1.3-1-1.6-2.9-.7-4.2l16.4-22.3 13.7 10.8 19.6-26.5c1-1.3 2.9-1.6 4.2-.6s1.6 2.9.6 4.2l-23.3 31.5-13.6-10.8-12.6 17.4c-.7.7-1.6 1.1-2.5 1.1z" fill="#3787dc"/><path d="m214.7 28.7c32.7 0 61.7 16.2 79.3 41.1 11.3 15.9 18 35.4 18 56.4 0 53.7-43.6 97.4-97.3 97.4v-35.3c34.2 0 62.1-27.9 62.1-62.1 0-13.4-4.3-25.8-11.5-35.9-11.2-16-29.7-26.3-50.6-26.3-34.2 0-62.1 27.9-62.1 62.1 0 34.3 27.8 62.1 62.1 62.1v35.3c-53.6 0-97.3-43.7-97.3-97.4s43.7-97.4 97.3-97.4zm0-4.2c-56 0-101.5 45.6-101.5 101.6 0 54.6 43.3 99.3 97.3 101.5v.1h4.2 4.2v-.1c54-2.2 97.3-46.9 97.3-101.5 0-21.2-6.5-41.5-18.8-58.8-9.1-12.9-21.4-23.7-35.4-31.1-14.5-7.7-30.8-11.7-47.3-11.7zm0 159.5c-31.9 0-57.9-26-57.9-57.9 0-32 26-57.9 57.9-57.9 18.7 0 36.3 9.1 47.2 24.4 7 9.9 10.7 21.4 10.7 33.5 0 32-26 57.9-57.9 57.9z" fill="#e4e8ef"/><path d="m312 126.1c0-21-6.7-40.4-18-56.4l-28.7 20.4c7.2 10.2 11.5 22.6 11.5 35.9 0 34.3-27.8 62.1-62.1 62.1v35.3c53.7.1 97.3-43.6 97.3-97.3z" fill="#f43d3d" opacity=".09"/><path d="m152.7 126.1c0-34.3 27.8-62.1 62.1-62.1 20.9 0 39.3 10.4 50.6 26.2l28.6-20.5c-17.6-24.8-46.6-41.1-79.3-41.1-53.6 0-97.3 43.7-97.3 97.4s43.6 97.4 97.3 97.4v-35.3c-34.2.1-62-27.7-62-62z" fill="#56d872"/><path d="m180 84h-52.5c-8.6 0-15.7-7.1-15.7-15.7v-52.6c0-8.6 7.1-15.7 15.7-15.7h52.5c8.6 0 15.7 7.1 15.7 15.7v52.6c0 8.6-7.1 15.7-15.7 15.7z" fill="#deeaf9"/><path d="m135.7 31.4c.7-1.2 1.7-2.1 2.9-2.8s2.6-1 4-1c1.5 0 2.8.3 4 1s2.2 1.6 2.9 2.8 1.1 2.5 1.1 3.9-.4 2.7-1.1 3.9-1.7 2.1-2.9 2.8-2.6 1-4 1c-1.5 0-2.8-.3-4-1s-2.2-1.6-2.9-2.8-1.1-2.5-1.1-3.9c0-1.5.4-2.7 1.1-3.9zm33.3-2.9-22.7 27h-7.9l22.7-27zm-28 7.7c.2.3.4.5.7.7s.6.3 1 .3.7-.1 1-.3.5-.4.7-.7.3-.6.3-.9c0-.4-.1-.7-.3-1s-.4-.5-.7-.7-.6-.3-1-.3-.7.1-1 .3-.5.4-.7.7-.3.6-.3 1c0 .3.1.6.3.9zm16.9 8.6c.7-1.2 1.7-2.1 2.9-2.8s2.6-1 4-1c1.5 0 2.8.3 4 1s2.2 1.6 2.9 2.8 1.1 2.5 1.1 3.9-.4 2.7-1.1 3.9-1.7 2.1-2.9 2.8-2.6 1-4 1c-1.5 0-2.8-.3-4-1s-2.2-1.6-2.9-2.8-1.1-2.5-1.1-3.9.3-2.7 1.1-3.9zm5.2 4.9c.2.3.4.5.7.7s.6.3 1 .3.7-.1 1-.3.5-.4.7-.7.3-.6.3-.9c0-.4-.1-.7-.3-1s-.4-.5-.7-.7-.6-.3-1-.3-.7.1-1 .3-.5.4-.7.7-.3.6-.3 1c0 .2.1.6.3.9z" fill="#5aa2f4"/><path d="m312 126.1c0-21-6.7-40.4-18-56.4l-28.7 20.4c7.2 10.2 11.5 22.6 11.5 35.9 0 34.3-27.8 62.1-62.1 62.1v35.3c53.7.1 97.3-43.6 97.3-97.3z" fill="#fc5e5e"/><g fill="#3787dc"><path d="m46.1 321.9v42c0 2.3-1.9 4.2-4.2 4.2s-4.2-1.9-4.2-4.2v-42c0-2.3 1.9-4.2 4.2-4.2 2.4 0 4.2 1.9 4.2 4.2z" opacity=".2"/><path d="m62.9 321.9v42c0 2.3-1.9 4.2-4.2 4.2s-4.2-1.9-4.2-4.2v-42c0-2.3 1.9-4.2 4.2-4.2s4.2 1.9 4.2 4.2z" opacity=".2"/><path d="m29.4 321.9v42c0 2.3-1.9 4.2-4.2 4.2s-4.2-1.9-4.2-4.2v-42c0-2.3 1.9-4.2 4.2-4.2s4.2 1.9 4.2 4.2z" opacity=".2"/></g></g></svg>